<svg width="105" height="105" viewBox="0 0 105 105" fill="none" xmlns="http://www.w3.org/2000/svg">
<g filter="url(#filter0_d)">
<path d="M52.5 81C70.4493 81 85 66.4493 85 48.5C85 30.5507 70.4493 16 52.5 16C34.5507 16 20 30.5507 20 48.5C20 66.4493 34.5507 81 52.5 81Z" fill="#CAD5FD"/>
</g>
<path d="M63.1364 63.8638C63.1364 65.8221 61.5492 67.4092 59.5909 67.4092H45.4091C43.4508 67.4092 41.8636 65.8221 41.8636 63.8638V33.1365C41.8636 31.1782 43.4508 29.5911 45.4091 29.5911H59.5909C61.5492 29.5911 63.1364 31.1782 63.1364 33.1365V63.8638Z" fill="white"/>
<path d="M43.0454 36.6821V54.9247L52.601 36.6821H43.0454Z" fill="#4AC3AF"/>
<path d="M43.0454 60.0179V60.3187H60.3236L47.8956 50.759L43.0454 60.0179Z" fill="#21B2D1"/>
<path d="M55.2689 36.6821L48.7305 49.1645L61.9544 59.3364V36.6821H55.2689Z" fill="#FBE158"/>
<path d="M48.3636 34.3181C48.69 34.3181 48.9545 34.0536 48.9545 33.7272C48.9545 33.4009 48.69 33.1363 48.3636 33.1363C48.0373 33.1363 47.7727 33.4009 47.7727 33.7272C47.7727 34.0536 48.0373 34.3181 48.3636 34.3181Z" fill="#B6BCBD"/>
<path d="M57.2273 33.7272C57.2273 34.0534 56.9625 34.3181 56.6364 34.3181H50.7273C50.4011 34.3181 50.1364 34.0534 50.1364 33.7272C50.1364 33.401 50.4011 33.1363 50.7273 33.1363H56.6364C56.9625 33.1363 57.2273 33.401 57.2273 33.7272Z" fill="#B6BCBD"/>
<path d="M52.5 66.2279C53.8054 66.2279 54.8636 65.1696 54.8636 63.8642C54.8636 62.5588 53.8054 61.5006 52.5 61.5006C51.1946 61.5006 50.1364 62.5588 50.1364 63.8642C50.1364 65.1696 51.1946 66.2279 52.5 66.2279Z" fill="#CFD3D4"/>
<path d="M53.6819 62.6819H51.3182V65.0456H53.6819V62.6819Z" fill="white"/>
<path d="M48.7305 49.1645L55.269 36.6821H52.601L43.0454 54.9247V60.0177L47.8956 50.7588L60.3236 60.3185H61.9545V59.3364L48.7305 49.1645Z" fill="#F0F1F1"/>
<path d="M60.1818 43.4774C60.1818 45.5987 56.3409 52.6956 56.3409 52.6956C56.3409 52.6956 52.5 45.5987 52.5 43.4774C52.5 41.356 54.2195 39.6365 56.3409 39.6365C58.4623 39.6365 60.1818 41.356 60.1818 43.4774Z" fill="#DF2C2C"/>
<path d="M56.3408 45.1911C57.2873 45.1911 58.0545 44.4238 58.0545 43.4774C58.0545 42.531 57.2873 41.7638 56.3408 41.7638C55.3944 41.7638 54.6272 42.531 54.6272 43.4774C54.6272 44.4238 55.3944 45.1911 56.3408 45.1911Z" fill="white"/>
<defs>
<filter id="filter0_d" x="0" y="0" width="105" height="105" filterUnits="userSpaceOnUse" color-interpolation-filters="sRGB">
<feFlood flood-opacity="0" result="BackgroundImageFix"/>
<feColorMatrix in="SourceAlpha" type="matrix" values="0 0 0 0 0 0 0 0 0 0 0 0 0 0 0 0 0 0 127 0"/>
<feOffset dy="4"/>
<feGaussianBlur stdDeviation="10"/>
<feColorMatrix type="matrix" values="0 0 0 0 0 0 0 0 0 0 0 0 0 0 0 0 0 0 0.12 0"/>
<feBlend mode="normal" in2="BackgroundImageFix" result="effect1_dropShadow"/>
<feBlend mode="normal" in="SourceGraphic" in2="effect1_dropShadow" result="shape"/>
</filter>
</defs>
</svg>
