<svg width="105" height="105" viewBox="0 0 105 105" fill="none" xmlns="http://www.w3.org/2000/svg">
<g filter="url(#filter0_d)">
<path d="M52.5 81C70.4493 81 85 66.4493 85 48.5C85 30.5507 70.4493 16 52.5 16C34.5507 16 20 30.5507 20 48.5C20 66.4493 34.5507 81 52.5 81Z" fill="#7379FF"/>
</g>
<path d="M43.0454 55.5905C43.0454 56.8958 44.1037 57.9541 45.409 57.9541H59.5909L66.6818 65.045V57.9541H69.0454C70.3507 57.9541 71.409 56.8958 71.409 55.5905V36.6814C71.409 35.3761 70.3507 34.3177 69.0454 34.3177H45.409C44.1037 34.3177 43.0454 35.3761 43.0454 36.6814V55.5905Z" fill="#6FDAF1"/>
<path d="M61.9546 50.8634C61.9546 52.1687 60.8963 53.2271 59.5909 53.2271H45.4091L38.3182 60.318V53.2271H35.9546C34.6493 53.2271 33.5909 52.1687 33.5909 50.8634V31.9543C33.5909 30.649 34.6493 29.5907 35.9546 29.5907H59.5909C60.8963 29.5907 61.9546 30.649 61.9546 31.9543V50.8634Z" fill="#F0F1F1"/>
<path d="M61.5616 30.6532C61.1391 30.0138 60.4153 29.5907 59.5909 29.5907H35.9546C34.6493 29.5907 33.5909 30.649 33.5909 31.9543V50.8634C33.5909 52.1687 34.6493 53.2271 35.9546 53.2271H38.3182V53.8972L61.5616 30.6532Z" fill="white"/>
<path d="M40.6819 43.7729C41.9873 43.7729 43.0455 42.7146 43.0455 41.4092C43.0455 40.1038 41.9873 39.0456 40.6819 39.0456C39.3765 39.0456 38.3182 40.1038 38.3182 41.4092C38.3182 42.7146 39.3765 43.7729 40.6819 43.7729Z" fill="#21B2D1"/>
<path d="M47.7727 43.7729C49.0781 43.7729 50.1363 42.7146 50.1363 41.4092C50.1363 40.1038 49.0781 39.0456 47.7727 39.0456C46.4673 39.0456 45.4091 40.1038 45.4091 41.4092C45.4091 42.7146 46.4673 43.7729 47.7727 43.7729Z" fill="#21B2D1"/>
<path d="M54.8636 43.7729C56.169 43.7729 57.2273 42.7146 57.2273 41.4092C57.2273 40.1038 56.169 39.0456 54.8636 39.0456C53.5582 39.0456 52.5 40.1038 52.5 41.4092C52.5 42.7146 53.5582 43.7729 54.8636 43.7729Z" fill="#21B2D1"/>
<defs>
<filter id="filter0_d" x="0" y="0" width="105" height="105" filterUnits="userSpaceOnUse" color-interpolation-filters="sRGB">
<feFlood flood-opacity="0" result="BackgroundImageFix"/>
<feColorMatrix in="SourceAlpha" type="matrix" values="0 0 0 0 0 0 0 0 0 0 0 0 0 0 0 0 0 0 127 0"/>
<feOffset dy="4"/>
<feGaussianBlur stdDeviation="10"/>
<feColorMatrix type="matrix" values="0 0 0 0 0 0 0 0 0 0 0 0 0 0 0 0 0 0 0.12 0"/>
<feBlend mode="normal" in2="BackgroundImageFix" result="effect1_dropShadow"/>
<feBlend mode="normal" in="SourceGraphic" in2="effect1_dropShadow" result="shape"/>
</filter>
</defs>
</svg>
