<svg width="105" height="105" viewBox="0 0 105 105" fill="none" xmlns="http://www.w3.org/2000/svg">
<g filter="url(#filter0_d)">
<path d="M52.5 81C70.4493 81 85 66.4493 85 48.5C85 30.5507 70.4493 16 52.5 16C34.5507 16 20 30.5507 20 48.5C20 66.4493 34.5507 81 52.5 81Z" fill="#FABC3D"/>
</g>
<path d="M33.5471 67.4399H71.3653C67.2384 60.2172 42.8197 53.0158 33.5471 67.4399Z" fill="#F8E1C2"/>
<path d="M52.4562 40.8491C51.8818 40.8254 51.3228 40.8237 50.7745 40.8373C49.7959 41.7266 48.9031 42.7158 48.0953 43.7741C43.5512 49.7127 41.5876 57.7113 40.9222 61.0924C43.7752 59.7871 46.9471 59.1844 50.1505 59.1188C50.3059 54.2645 50.8271 48.548 52.2435 44.5476C52.6731 43.3008 53.1103 42.4103 53.5015 41.7703C53.1741 41.4465 52.8314 41.1351 52.4562 40.8491Z" fill="#84462D"/>
<path d="M52.4562 40.8488C47.6947 40.6544 43.8496 41.7748 40.638 43.8034C41.2939 40.866 43.1766 38.6477 46.5471 37.3034C42.9314 36.1676 39.3871 36.9925 35.9108 39.667C39.6938 32.9052 44.8979 31.6513 51.2744 34.9397C50.8614 33.011 48.9031 31.4829 45.9562 30.2125C50.6084 29.9796 53.8815 31.0557 54.8199 34.3488C57.0954 32.5649 59.475 32.8828 61.9108 34.3488C60.0618 34.3346 58.4309 34.9592 57.1835 36.7125C61.9716 37.7489 63.8034 41.3641 64.2744 46.167C62.0278 43.6273 59.7108 41.6702 57.1835 41.4397C58.2991 43.9003 58.0379 46.2409 57.1835 48.5306C56.3072 45.4095 54.9008 42.7131 52.4562 40.8488Z" fill="#0C7367"/>
<path d="M42.6353 54.6049C42.5821 54.7645 42.5319 54.9205 42.4817 55.0776C44.9617 55.317 49.0881 56.0568 50.2758 56.2837C50.2994 55.8878 50.329 55.5037 50.3526 55.1255C49.2192 54.9411 45.0415 54.329 42.6353 54.6049Z" fill="#9C6144"/>
<path d="M44.1456 50.6485C44.0889 50.7785 44.034 50.9079 43.979 51.0373C45.8959 51.4249 49.0336 52.254 50.5777 52.7669C50.6131 52.3828 50.6604 52.0105 50.7077 51.6501C49.1252 51.2081 46.0135 50.5681 44.1456 50.6485Z" fill="#9C6144"/>
<path d="M45.8423 47.2242C45.7879 47.3212 45.7318 47.4181 45.678 47.5156C47.2214 47.8867 49.6347 48.5892 51.0907 49.1276C51.1557 48.7671 51.2207 48.4185 51.2916 48.0876C49.8823 47.6592 47.5884 47.1906 45.8423 47.2242Z" fill="#9C6144"/>
<path d="M48.0952 43.7741C48.0072 43.8893 47.9227 44.0081 47.8364 44.1251C49.1512 44.4725 50.96 44.9577 51.9539 45.4464C52.0484 45.1273 52.143 44.8318 52.2434 44.5476C51.2123 44.1588 49.4662 43.8296 48.1325 43.7268C48.1207 43.7428 48.1077 43.7581 48.0952 43.7741Z" fill="#9C6144"/>
<path d="M33.5471 67.4395H44.8713L53.1074 59.2034C45.6986 58.6385 37.9305 60.6204 33.5471 67.4395Z" fill="#FCF1E2"/>
<defs>
<filter id="filter0_d" x="0" y="0" width="105" height="105" filterUnits="userSpaceOnUse" color-interpolation-filters="sRGB">
<feFlood flood-opacity="0" result="BackgroundImageFix"/>
<feColorMatrix in="SourceAlpha" type="matrix" values="0 0 0 0 0 0 0 0 0 0 0 0 0 0 0 0 0 0 127 0"/>
<feOffset dy="4"/>
<feGaussianBlur stdDeviation="10"/>
<feColorMatrix type="matrix" values="0 0 0 0 0 0 0 0 0 0 0 0 0 0 0 0 0 0 0.12 0"/>
<feBlend mode="normal" in2="BackgroundImageFix" result="effect1_dropShadow"/>
<feBlend mode="normal" in="SourceGraphic" in2="effect1_dropShadow" result="shape"/>
</filter>
</defs>
</svg>
