<svg width="105" height="105" viewBox="0 0 105 105" fill="none" xmlns="http://www.w3.org/2000/svg">
<g filter="url(#filter0_d)">
<path d="M52.5 81C70.4493 81 85 66.4493 85 48.5C85 30.5507 70.4493 16 52.5 16C34.5507 16 20 30.5507 20 48.5C20 66.4493 34.5507 81 52.5 81Z" fill="#E04F5F"/>
</g>
<path d="M71.409 66.2273C71.409 66.8803 70.8802 67.4092 70.2272 67.4092H44.2272C43.5743 67.4092 43.0454 66.8803 43.0454 66.2273V40.2274C43.0454 39.5744 43.5743 39.0455 44.2272 39.0455H70.2272C70.8802 39.0455 71.409 39.5744 71.409 40.2274V66.2273Z" fill="#F0F1F1"/>
<path d="M69.0454 41.4092H45.4091V60.3183H69.0454V41.4092Z" fill="#40C9E7"/>
<path d="M61.9546 56.7727C61.9546 57.4257 61.4257 57.9545 60.7728 57.9545H34.7728C34.1198 57.9545 33.5909 57.4257 33.5909 56.7727V30.7727C33.5909 30.1197 34.1198 29.5909 34.7728 29.5909H60.7728C61.4257 29.5909 61.9546 30.1197 61.9546 30.7727V56.7727Z" fill="white"/>
<path d="M59.591 31.9546H35.9546V50.8637H59.591V31.9546Z" fill="#40C9E7"/>
<path d="M45.9876 42.6034L56.6364 31.9546H35.9321V47.5546L41.0518 41.4109L41.05 41.4091L43.0201 39.0455L43.0213 39.0473L43.023 39.0455L45.9876 42.6034Z" fill="#6FDAF1"/>
<path d="M54.8637 34.3182L42.4546 50.8637H59.591V40.9364L54.8637 34.3182Z" fill="#84462D"/>
<path d="M54.8518 39.0328L56.5814 41.4544L58.3104 39.148L54.8518 34.3055L51.3926 38.9176L53.1222 41.4544L54.8518 39.0328Z" fill="#F0F1F1"/>
<path d="M43.0455 39.0455L35.9546 47.5546V50.8637H52.8942L43.0455 39.0455Z" fill="#D4A263"/>
<path d="M48.9575 35.522C48.9575 36.1749 48.4281 36.7044 47.7751 36.7044H40.6795C40.0265 36.7044 39.4971 36.1749 39.4971 35.522C39.4971 34.7887 40.1861 34.0193 41.4683 34.4767C42.1183 33.673 43.117 33.1589 44.2279 33.1589C45.3388 33.1589 46.3374 33.673 46.9874 34.4767C48.275 34.0169 48.9575 34.7952 48.9575 35.522Z" fill="white"/>
<path d="M46.0101 42.6034L37.7498 50.8637H35.9546V47.5546L41.0742 41.411L43.0425 43.7728L45.012 41.4092L46.0101 42.6034Z" fill="#EDBC7C"/>
<path d="M43.0425 43.7953L45.012 41.4316L43.0425 39.068L41.0724 41.4316L43.0425 43.7953Z" fill="white"/>
<defs>
<filter id="filter0_d" x="0" y="0" width="105" height="105" filterUnits="userSpaceOnUse" color-interpolation-filters="sRGB">
<feFlood flood-opacity="0" result="BackgroundImageFix"/>
<feColorMatrix in="SourceAlpha" type="matrix" values="0 0 0 0 0 0 0 0 0 0 0 0 0 0 0 0 0 0 127 0"/>
<feOffset dy="4"/>
<feGaussianBlur stdDeviation="10"/>
<feColorMatrix type="matrix" values="0 0 0 0 0 0 0 0 0 0 0 0 0 0 0 0 0 0 0.12 0"/>
<feBlend mode="normal" in2="BackgroundImageFix" result="effect1_dropShadow"/>
<feBlend mode="normal" in="SourceGraphic" in2="effect1_dropShadow" result="shape"/>
</filter>
</defs>
</svg>
