<svg width="105" height="105" viewBox="0 0 105 105" fill="none" xmlns="http://www.w3.org/2000/svg">
<g filter="url(#filter0_d)">
<path d="M52.5 81C70.4493 81 85 66.4493 85 48.5C85 30.5507 70.4493 16 52.5 16C34.5507 16 20 30.5507 20 48.5C20 66.4493 34.5507 81 52.5 81Z" fill="#5BE5FF"/>
</g>
<path d="M58.8682 44.7258L69.4271 29.5902H71.409L60.1451 45.735C59.7398 45.3746 59.319 45.0313 58.8682 44.7258Z" fill="#FBE158"/>
<path d="M54.6414 42.9016L63.9287 29.5902H69.4271L58.8681 44.7258C57.6071 43.8695 56.1765 43.2473 54.6414 42.9016Z" fill="#DF2C2C"/>
<path d="M52.8947 42.6398L61.9994 29.5902H63.9287L54.6414 42.9016C54.0729 42.774 53.4897 42.6871 52.8947 42.6398Z" fill="#FBE158"/>
<path d="M52.4999 67.408C59.3533 67.408 64.909 61.8523 64.909 54.9989C64.909 48.1456 59.3533 42.5898 52.4999 42.5898C45.6466 42.5898 40.0908 48.1456 40.0908 54.9989C40.0908 61.8523 45.6466 67.408 52.4999 67.408Z" fill="#F3B607"/>
<path d="M52.4999 64.1584C57.5583 64.1584 61.659 60.0577 61.659 54.9993C61.659 49.9409 57.5583 45.8402 52.4999 45.8402C47.4415 45.8402 43.3408 49.9409 43.3408 54.9993C43.3408 60.0577 47.4415 64.1584 52.4999 64.1584Z" fill="#FBE158"/>
<path d="M71.3488 45.0328C71.383 45.0275 71.409 44.998 71.409 44.9625V44.9442C71.409 44.9093 71.3836 44.8792 71.3488 44.8739C69.3739 44.5778 68.2388 43.4421 67.9428 41.4679C67.9374 41.4336 67.9079 41.4082 67.8724 41.4082H67.8547C67.8198 41.4082 67.7897 41.4336 67.7844 41.4685C67.4883 43.4427 66.3532 44.5784 64.3784 44.8745C64.3435 44.8798 64.3181 44.9093 64.3181 44.9448V44.9625C64.3181 44.9974 64.3435 45.0275 64.3784 45.0328C66.3532 45.3289 67.4883 46.4646 67.7844 48.4388C67.7897 48.4737 67.8193 48.4991 67.8547 48.4991H67.8801C67.9108 48.4991 67.9368 48.4767 67.9416 48.4465C68.2358 46.4676 69.3716 45.3295 71.3488 45.0328Z" fill="white"/>
<path d="M41.7932 63.3638C41.8334 63.3579 41.8635 63.323 41.8635 63.2823V63.261C41.8635 63.2202 41.8334 63.1853 41.7932 63.1794C39.4893 62.8338 38.165 61.5089 37.8194 59.2056C37.8135 59.1648 37.7786 59.1353 37.7378 59.1353H37.7171C37.6764 59.1353 37.6415 59.1654 37.6356 59.2056C37.2899 61.5089 35.9657 62.8338 33.6617 63.1794C33.6204 63.1853 33.5908 63.2202 33.5908 63.261V63.2817C33.5908 63.3224 33.621 63.3573 33.6611 63.3632C35.9651 63.7089 37.2893 65.0337 37.635 67.3371C37.6409 67.3784 37.6758 67.408 37.7165 67.408H37.7461C37.7821 67.408 37.8123 67.382 37.8176 67.3465C38.1615 65.0378 39.4863 63.7101 41.7932 63.3638Z" fill="white"/>
<path d="M52.4999 42.5898C45.6465 42.5898 40.0908 48.1456 40.0908 54.9989C40.0908 58.4735 41.5226 61.6106 43.8242 63.8632L61.3641 46.3232C59.1116 44.0216 55.9745 42.5898 52.4999 42.5898Z" fill="#FACB1B"/>
<path d="M52.4999 45.8402C47.4411 45.8402 43.3408 49.9405 43.3408 54.9993C43.3408 57.5763 44.4092 59.9009 46.1222 61.5655L59.0661 48.6216C57.4015 46.9086 55.0769 45.8402 52.4999 45.8402Z" fill="#FCF6C2"/>
<path d="M51.6932 51.7373C51.3747 51.82 50.6249 52.0428 50.3188 52.0428C49.7078 52.0428 49.1819 51.534 49.1819 50.923C49.1819 50.3971 49.5211 49.9563 50.047 49.8032L51.7269 49.311C52.2192 49.1751 52.592 49.0906 52.9489 49.0906H52.9826C53.6958 49.0906 54.2726 49.6673 54.2726 50.3799V59.9503C54.2726 60.6629 53.6958 61.2397 52.9826 61.2397C52.27 61.2397 51.6927 60.6629 51.6927 59.9503V51.7373H51.6932Z" fill="#F99134"/>
<path d="M46.1319 44.7273L35.573 29.5918H33.5911L44.855 45.7366C45.2603 45.3762 45.6811 45.0328 46.1319 44.7273Z" fill="#FBE158"/>
<path d="M50.3585 42.9016L41.0712 29.5902H35.5728L46.1317 44.7258C47.3927 43.8695 48.8233 43.2473 50.3585 42.9016Z" fill="#DF2C2C"/>
<path d="M52.1052 42.6398L43.0005 29.5902H41.0712L50.3585 42.9016C50.9269 42.774 51.5102 42.6871 52.1052 42.6398Z" fill="#FBE158"/>
<defs>
<filter id="filter0_d" x="0" y="0" width="105" height="105" filterUnits="userSpaceOnUse" color-interpolation-filters="sRGB">
<feFlood flood-opacity="0" result="BackgroundImageFix"/>
<feColorMatrix in="SourceAlpha" type="matrix" values="0 0 0 0 0 0 0 0 0 0 0 0 0 0 0 0 0 0 127 0"/>
<feOffset dy="4"/>
<feGaussianBlur stdDeviation="10"/>
<feColorMatrix type="matrix" values="0 0 0 0 0 0 0 0 0 0 0 0 0 0 0 0 0 0 0.12 0"/>
<feBlend mode="normal" in2="BackgroundImageFix" result="effect1_dropShadow"/>
<feBlend mode="normal" in="SourceGraphic" in2="effect1_dropShadow" result="shape"/>
</filter>
</defs>
</svg>
