<svg width="16" height="16" viewBox="0 0 16 16" fill="none" xmlns="http://www.w3.org/2000/svg">
<path d="M8 3.83862C5.74193 3.83862 3.87096 5.67733 3.87096 7.96765C3.87096 10.258 5.70967 12.0967 8 12.0967C10.2903 12.0967 12.129 10.2257 12.129 7.96765C12.129 5.70959 10.2581 3.83862 8 3.83862ZM8 10.6128C6.54838 10.6128 5.35484 9.41927 5.35484 7.96765C5.35484 6.51604 6.54838 5.32249 8 5.32249C9.45161 5.32249 10.6452 6.51604 10.6452 7.96765C10.6452 9.41927 9.45161 10.6128 8 10.6128Z" fill="black"/>
<path d="M12.2903 4.67736C12.807 4.67736 13.2258 4.25853 13.2258 3.74188C13.2258 3.22523 12.807 2.8064 12.2903 2.8064C11.7737 2.8064 11.3548 3.22523 11.3548 3.74188C11.3548 4.25853 11.7737 4.67736 12.2903 4.67736Z" fill="black"/>
<path d="M14.7097 1.32258C13.871 0.451613 12.6774 0 11.3226 0H4.67742C1.87097 0 0 1.87097 0 4.67742V11.2903C0 12.6774 0.451613 13.871 1.35484 14.7419C2.22581 15.5806 3.3871 16 4.70968 16H11.2903C12.6774 16 13.8387 15.5484 14.6774 14.7419C15.5484 13.9032 16 12.7097 16 11.3226V4.67742C16 3.32258 15.5484 2.16129 14.7097 1.32258ZM14.5806 11.3226C14.5806 12.3226 14.2258 13.129 13.6452 13.6774C13.0645 14.2258 12.2581 14.5161 11.2903 14.5161H4.70968C3.74194 14.5161 2.93548 14.2258 2.35484 13.6774C1.77419 13.0968 1.48387 12.2903 1.48387 11.2903V4.67742C1.48387 3.70968 1.77419 2.90323 2.35484 2.32258C2.90323 1.77419 3.74194 1.48387 4.70968 1.48387H11.3548C12.3226 1.48387 13.129 1.77419 13.7097 2.35484C14.2581 2.93548 14.5806 3.74194 14.5806 4.67742V11.3226Z" fill="black"/>
</svg>
