<svg width="31" height="35" viewBox="0 0 31 35" fill="none" xmlns="http://www.w3.org/2000/svg">
<rect width="31" height="35" fill="black" fill-opacity="0"/>
<circle cx="15.5" cy="17.5" r="15" stroke="black"/>
<path d="M13.5767 22.3979V21.9463C13.5767 20.9453 13.7272 20.1274 14.0283 19.4927C14.3376 18.8579 14.9032 18.1784 15.7251 17.4541L16.8359 16.4897C17.4219 15.9933 17.841 15.501 18.0933 15.0127C18.3455 14.5244 18.4717 13.9629 18.4717 13.3281C18.4717 12.2946 18.1299 11.4727 17.4463 10.8623C16.7708 10.252 15.8797 9.94678 14.7729 9.94678C14.13 9.94678 13.5278 10.02 12.9663 10.1665C12.4048 10.3049 11.7985 10.5327 11.1475 10.8501L10.6958 9.87354C11.591 9.48291 12.3397 9.22249 12.9419 9.09229C13.5522 8.96208 14.1789 8.89697 14.8218 8.89697C16.311 8.89697 17.4829 9.2998 18.3374 10.1055C19.1919 10.903 19.6191 12.0016 19.6191 13.4014C19.6191 13.9548 19.5459 14.439 19.3994 14.854C19.2529 15.269 19.0454 15.6556 18.7769 16.0137C18.5164 16.3636 18.1991 16.7054 17.8247 17.0391C17.4504 17.3646 17.0353 17.7186 16.5796 18.1011C16.0588 18.5405 15.6559 18.9434 15.3711 19.3096C15.0944 19.6676 14.891 20.0461 14.7607 20.4448C14.6387 20.8436 14.5776 21.4377 14.5776 22.2271V22.3979H13.5767ZM13.1738 26.0479C13.1738 25.2503 13.4993 24.8516 14.1504 24.8516C14.8177 24.8516 15.1514 25.2503 15.1514 26.0479C15.1514 26.8454 14.8177 27.2441 14.1504 27.2441C13.4993 27.2441 13.1738 26.8454 13.1738 26.0479Z" fill="black"/>
</svg>
