<svg width="27" height="16" viewBox="0 0 27 16" fill="none" xmlns="http://www.w3.org/2000/svg">
<path fill-rule="evenodd" clip-rule="evenodd" d="M14.4173 15.9917C15.316 15.9917 15.316 14.7115 15.316 14.2149C15.316 13.3264 16.2148 12.438 17.1136 12.438C18.0123 12.438 19.5537 13.9616 20.7086 15.1033C21.6074 15.9917 21.6074 15.9917 22.5062 15.9917C23.4049 15.9917 25.2025 15.9917 25.2025 15.9917C25.2025 15.9917 27 15.9242 27 14.2149C27 13.6596 26.3843 12.7179 24.3037 10.6611C22.5062 8.88428 21.584 9.80203 24.3037 6.219C25.9601 4.03702 27.1654 2.06027 26.9587 1.48989C26.7609 0.945288 22.1538 0.0781817 21.6074 0.888428C19.8099 3.55371 19.48 4.20671 18.9111 5.33057C18.0123 7.10743 17.9234 7.99585 17.1136 7.99585C16.2966 7.99585 16.2148 6.27142 16.2148 5.33057C16.2148 2.39343 16.6453 0.31628 15.316 0C15.316 0 13.5185 0 12.6197 0C11.1727 0 9.92343 0.888428 9.92343 0.888428C9.92343 0.888428 8.80806 1.74843 9.02466 1.77686C9.29249 1.81239 10.8222 1.40905 10.8222 2.66528C10.8222 3.55371 10.8222 4.44214 10.8222 4.44214C10.8222 4.44214 10.8303 7.99585 9.92343 7.99585C9.02466 7.99585 7.22712 4.44214 5.42959 1.77686C4.72406 0.731176 4.53082 0.888428 3.63206 0.888428C2.66858 0.888428 1.83542 0.925742 0.935755 0.925742C0.0369877 0.925742 -0.0780545 1.49167 0.0369877 1.77686C1.83452 6.219 3.12605 9.00866 6.54137 12.5233C9.67357 15.7474 11.7659 15.9189 13.5185 15.9917C13.9679 16.0104 13.5185 15.9917 14.4173 15.9917Z" fill="black"/>
</svg>
