<svg width="17" height="16" viewBox="0 0 17 16" fill="none" xmlns="http://www.w3.org/2000/svg">
<path d="M13.8948 7.62085H3.10525C1.39024 7.62085 0 8.95991 0 10.6098V13.0114C0 14.6613 1.39024 16.0001 3.10525 16.0001H13.8948C15.6094 16.0001 17 14.6613 17 13.0114V10.6098C17 8.95991 15.6094 7.62085 13.8948 7.62085ZM5.37205 9.49053H4.36897V14.2865H3.39986V9.49053H2.39748V8.67475H5.37205V9.49053ZM8.20556 14.2865H7.34597V13.8329C7.18619 14.0006 7.02155 14.1287 6.84963 14.2151C6.67772 14.3051 6.51169 14.3472 6.35017 14.3472C6.15053 14.3472 6.00218 14.2861 5.90063 14.1621C5.8008 14.0383 5.74985 13.8549 5.74985 13.6071V10.1462H6.60944V13.3223C6.60944 13.4203 6.6285 13.4907 6.66281 13.5344C6.6999 13.5794 6.75882 13.6001 6.83958 13.6001C6.90197 13.6001 6.98238 13.5714 7.07909 13.5134C7.17648 13.4547 7.26522 13.3813 7.34597 13.2906V10.1459H8.20556V14.2865ZM11.3264 13.4317C11.3264 13.7242 11.2588 13.9489 11.124 14.1057C10.9898 14.2624 10.7937 14.3395 10.5396 14.3395C10.3705 14.3395 10.22 14.3101 10.0894 14.2494C9.958 14.1894 9.83426 14.097 9.72161 13.969V14.2861H8.85163V8.67475H9.72161V10.4821C9.83807 10.357 9.96112 10.2599 10.0897 10.1949C10.2211 10.1285 10.3531 10.0965 10.4869 10.0965C10.759 10.0965 10.9663 10.1839 11.1098 10.3603C11.254 10.5368 11.3257 10.7952 11.3257 11.1341V13.4317H11.3264ZM14.3083 12.3161H12.6633V13.0961C12.6633 13.3136 12.691 13.465 12.7471 13.5494C12.8047 13.6341 12.9014 13.6755 13.039 13.6755C13.1818 13.6755 13.2806 13.6398 13.3381 13.5684C13.3936 13.4964 13.4234 13.3396 13.4234 13.0961V12.9077H14.3083V13.1202C14.3083 13.5444 14.2012 13.8642 13.9838 14.08C13.77 14.2938 13.4476 14.3999 13.0192 14.3999C12.6335 14.3999 12.3295 14.2868 12.1087 14.0593C11.8886 13.8332 11.7763 13.5194 11.7763 13.1205V11.2608C11.7763 10.903 11.899 10.6085 12.1427 10.3827C12.3856 10.1569 12.6986 10.0442 13.0837 10.0442C13.4778 10.0442 13.7804 10.1486 13.9915 10.358C14.2025 10.5678 14.3083 10.8679 14.3083 11.2605V12.3161Z" fill="black"/>
<path d="M13.0473 10.7678C12.91 10.7678 12.8123 10.8048 12.7527 10.8822C12.6917 10.9549 12.6633 11.0793 12.6633 11.2531V11.6716H13.4234V11.2531C13.4234 11.0793 13.3929 10.9546 13.3326 10.8822C13.2747 10.8052 13.178 10.7678 13.0473 10.7678Z" fill="black"/>
<path d="M10.0814 10.7537C10.0204 10.7537 9.95869 10.7667 9.89942 10.7937C9.83911 10.82 9.78019 10.8637 9.72196 10.9204V13.4995C9.79093 13.5662 9.85921 13.6175 9.92576 13.6469C9.99196 13.6752 10.0606 13.6913 10.1337 13.6913C10.2394 13.6913 10.3164 13.6619 10.366 13.6025C10.4148 13.5438 10.4398 13.4501 10.4398 13.3177V11.1796C10.4398 11.0388 10.4107 10.9334 10.3497 10.8611C10.2866 10.7897 10.1972 10.7537 10.0814 10.7537Z" fill="black"/>
<path d="M4.51802 6.18268H5.60775V3.61796L6.87667 0H5.76892L5.09442 2.47134H5.02579L4.31768 0H3.21997L4.51802 3.73336V6.18268Z" fill="black"/>
<path d="M8.35321 6.29776C8.7934 6.29776 9.13862 6.1867 9.39026 5.96458C9.64016 5.74146 9.76529 5.43696 9.76529 5.04675V2.69081C9.76529 2.34362 9.63739 2.0578 9.38263 1.83735C9.12614 1.61756 8.79756 1.50684 8.39688 1.50684C7.95669 1.50684 7.60628 1.61156 7.34563 1.82067C7.08567 2.02979 6.955 2.31027 6.955 2.6648V5.02874C6.955 5.41662 7.08221 5.72345 7.33627 5.95358C7.59033 6.1827 7.93001 6.29776 8.35321 6.29776ZM7.95184 2.63011C7.95184 2.53106 7.98893 2.45101 8.06137 2.38831C8.13658 2.32695 8.2319 2.29726 8.35044 2.29726C8.47834 2.29726 8.58197 2.32695 8.661 2.38831C8.73968 2.45101 8.77884 2.53106 8.77884 2.63011V5.11512C8.77884 5.23686 8.74037 5.33358 8.66238 5.40328C8.58509 5.47332 8.48111 5.50767 8.35044 5.50767C8.22254 5.50767 8.12376 5.47432 8.05444 5.40428C7.98616 5.33591 7.95149 5.23986 7.95149 5.11479V2.63011H7.95184Z" fill="black"/>
<path d="M11.2269 6.24949C11.4089 6.24949 11.5957 6.19946 11.7881 6.10341C11.9825 6.00602 12.1687 5.86361 12.3458 5.67784V6.18312H13.3138V1.62231H12.3458V5.08419C12.2557 5.18324 12.1555 5.26462 12.048 5.32932C11.9385 5.39336 11.8484 5.42537 11.7773 5.42537C11.6865 5.42537 11.6196 5.40136 11.5805 5.35167C11.5406 5.30398 11.5181 5.22593 11.5181 5.11888V1.62231H10.5514V5.43405C10.5514 5.70586 10.6082 5.90897 10.7205 6.04371C10.8349 6.18045 11.002 6.24949 11.2269 6.24949Z" fill="black"/>
</svg>
